<svg width="150" height="200" viewBox="0 0 150 200" xmlns="http://www.w3.org/2000/svg">
  <rect width="150" height="200" fill="#f8fafc"/>
  
  <!-- Header -->
  <rect x="20" y="20" width="90" height="8" fill="#1e293b" rx="1"/>
  <rect x="20" y="32" width="50" height="3" fill="#94a3b8" rx="1"/>
  
  <!-- Contact Info -->
  <rect x="20" y="45" width="20" height="3" fill="#64748b" rx="1"/>
  <rect x="45" y="45" width="20" height="3" fill="#64748b" rx="1"/>
  <rect x="70" y="45" width="20" height="3" fill="#64748b" rx="1"/>
  <rect x="95" y="45" width="20" height="3" fill="#64748b" rx="1"/>
  
  <!-- Divider -->
  <rect x="20" y="60" width="110" height="1" fill="#e2e8f0"/>
  
  <!-- Summary -->
  <rect x="20" y="70" width="30" height="4" fill="#1e293b" rx="1"/>
  <rect x="20" y="78" width="110" height="3" fill="#64748b" rx="1"/>
  <rect x="20" y="84" width="100" height="3" fill="#64748b" rx="1"/>
  
  <!-- Skills -->
  <rect x="20" y="95" width="30" height="4" fill="#1e293b" rx="1"/>
  <rect x="20" y="103" width="25" height="5" fill="#f1f5f9" stroke="#cbd5e1" rx="2"/>
  <rect x="50" y="103" width="25" height="5" fill="#f1f5f9" stroke="#cbd5e1" rx="2"/>
  <rect x="80" y="103" width="25" height="5" fill="#f1f5f9" stroke="#cbd5e1" rx="2"/>
  
  <!-- Experience -->
  <rect x="20" y="115" width="40" height="4" fill="#1e293b" rx="1"/>
  
  <rect x="20" y="123" width="60" height="3" fill="#334155" rx="1"/>
  <rect x="110" y="123" width="20" height="2" fill="#94a3b8" rx="1"/>
  <rect x="20" y="128" width="40" height="2" fill="#64748b" rx="1"/>
  <rect x="20" y="133" width="110" height="2" fill="#94a3b8" rx="1"/>
  
  <rect x="20" y="143" width="60" height="3" fill="#334155" rx="1"/>
  <rect x="110" y="143" width="20" height="2" fill="#94a3b8" rx="1"/>
  <rect x="20" y="148" width="40" height="2" fill="#64748b" rx="1"/>
  <rect x="20" y="153" width="110" height="2" fill="#94a3b8" rx="1"/>
  
  <!-- Education -->
  <rect x="20" y="165" width="40" height="4" fill="#1e293b" rx="1"/>
  
  <rect x="20" y="173" width="60" height="3" fill="#334155" rx="1"/>
  <rect x="110" y="173" width="20" height="2" fill="#94a3b8" rx="1"/>
  <rect x="20" y="178" width="40" height="2" fill="#64748b" rx="1"/>
  <rect x="20" y="183" width="110" height="2" fill="#94a3b8" rx="1"/>
</svg> 